{
  "accessors": [
    {
      "bufferView": 2,
      "componentType": 5126,
      "count": 264,
      "max": [
        0.04666897654533386,
        0.05196543410420418,
        0.04666897654533386
      ],
      "min": [
        -0.04666897654533386,
        -0.05000000447034836,
        -0.04666897654533386
      ],
      "type": "VEC3"
    },
    {
      "bufferView": 2,
      "byteOffset": 3168,
      "componentType": 5126,
      "count": 264,
      "max": [
        0.9839494824409485,
        -0.17514972388744354,
        0.9839494824409485
      ],
      "min": [
        -0.9839494824409485,
        -1.0,
        -0.9839494824409485
      ],
      "type": "VEC3"
    },
    {
      "bufferView": 1,
      "componentType": 5126,
      "count": 264,
      "max": [
        1.0008838176727295,
        1.0
      ],
      "min": [
        -0.0008838698850013316,
        0.01000000536441803
      ],
      "type": "VEC2"
    },
    {
      "bufferView": 0,
      "componentType": 5125,
      "count": 1386,
      "type": "SCALAR"
    },
    {
      "bufferView": 2,
      "byteOffset": 6336,
      "componentType": 5126,
      "count": 16783,
      "max": [
        0.12700876593589783,
        0.20810829102993011,
        0.12700875103473663
      ],
      "min": [
        -0.12700875103473663,
        -0.09984838217496872,
        -0.12700875103473663
      ],
      "type": "VEC3"
    },
    {
      "bufferView": 2,
      "byteOffset": 207732,
      "componentType": 5126,
      "count": 16783,
      "max": [
        0.9999903440475464,
        1.0,
        0.9999902248382568
      ],
      "min": [
        -0.9999903440475464,
        -1.0,
        -0.9999902248382568
      ],
      "type": "VEC3"
    },
    {
      "bufferView": 1,
      "byteOffset": 2112,
      "componentType": 5126,
      "count": 16783,
      "max": [
        1.0000112056732178,
        1.0000001192092896
      ],
      "min": [
        -1.1124195225420408e-05,
        9.225159737979993e-05
      ],
      "type": "VEC2"
    },
    {
      "bufferView": 1,
      "byteOffset": 136376,
      "componentType": 5126,
      "count": 16783,
      "max": [
        1.0000112056732178,
        1.0000001192092896
      ],
      "min": [
        -1.1124195225420408e-05,
        9.225159737979993e-05
      ],
      "type": "VEC2"
    },
    {
      "bufferView": 0,
      "byteOffset": 5544,
      "componentType": 5125,
      "count": 76032,
      "type": "SCALAR"
    },
    {
      "bufferView": 2,
      "byteOffset": 409128,
      "componentType": 5126,
      "count": 850,
      "max": [
        0.11757870018482208,
        0.2043098658323288,
        0.11757870763540268
      ],
      "min": [
        -0.11757870763540268,
        0.06185436621308327,
        -0.11757870763540268
      ],
      "type": "VEC3"
    },
    {
      "bufferView": 2,
      "byteOffset": 419328,
      "componentType": 5126,
      "count": 850,
      "max": [
        0.9950565099716187,
        0.383541077375412,
        0.9950565099716187
      ],
      "min": [
        -0.9950565099716187,
        0.09930802136659622,
        -0.9950565099716187
      ],
      "type": "VEC3"
    },
    {
      "bufferView": 3,
      "componentType": 5126,
      "count": 850,
      "max": [
        0.4351460635662079,
        0.9942594766616821,
        0.5730636715888977,
        1.0
      ],
      "min": [
        -0.9696645140647888,
        -0.9946622848510742,
        -0.8749140501022339,
        1.0
      ],
      "type": "VEC4"
    },
    {
      "bufferView": 1,
      "byteOffset": 270640,
      "componentType": 5126,
      "count": 850,
      "max": [
        0.5863438844680786,
        0.6317780017852783
      ],
      "min": [
        0.11035671085119247,
        0.2060348391532898
      ],
      "type": "VEC2"
    },
    {
      "bufferView": 0,
      "byteOffset": 309672,
      "componentType": 5125,
      "count": 4608,
      "type": "SCALAR"
    },
    {
      "bufferView": 2,
      "byteOffset": 429528,
      "componentType": 5126,
      "count": 1835,
      "max": [
        0.10000330954790115,
        0.0818580612540245,
        0.10000330209732056
      ],
      "min": [
        -0.10000330209732056,
        -0.07830841839313507,
        -0.10000330209732056
      ],
      "type": "VEC3"
    },
    {
      "bufferView": 2,
      "byteOffset": 451548,
      "componentType": 5126,
      "count": 1835,
      "max": [
        0.9961807727813721,
        1.0,
        0.9961807727813721
      ],
      "min": [
        -0.9961807727813721,
        -1.0,
        -0.9961807727813721
      ],
      "type": "VEC3"
    },
    {
      "bufferView": 1,
      "byteOffset": 277440,
      "componentType": 5126,
      "count": 1835,
      "max": [
        0.49000006914138794,
        0.49000006914138794
      ],
      "min": [
        0.01000000536441803,
        0.01000000536441803
      ],
      "type": "VEC2"
    },
    {
      "bufferView": 0,
      "byteOffset": 328104,
      "componentType": 5125,
      "count": 6912,
      "type": "SCALAR"
    },
    {
      "bufferView": 2,
      "byteOffset": 473568,
      "componentType": 5126,
      "count": 22,
      "max": [
        1.0,
        1.6911648511886597,
        1.7993860244750977
      ],
      "min": [
        -1.0,
        0.0,
        -1.0
      ],
      "type": "VEC3"
    },
    {
      "bufferView": 2,
      "byteOffset": 473832,
      "componentType": 5126,
      "count": 22,
      "max": [
        0.0,
        1.0,
        1.0
      ],
      "min": [
        0.0,
        0.0,
        -0.0
      ],
      "type": "VEC3"
    },
    {
      "bufferView": 1,
      "byteOffset": 292120,
      "componentType": 5126,
      "count": 22,
      "max": [
        0.4634357988834381,
        0.9999318718910217
      ],
      "min": [
        6.806648889323696e-05,
        6.806648889323696e-05
      ],
      "type": "VEC2"
    },
    {
      "bufferView": 1,
      "byteOffset": 292296,
      "componentType": 5126,
      "count": 22,
      "max": [
        0.4634357988834381,
        0.9999318718910217
      ],
      "min": [
        6.806648889323696e-05,
        6.806648889323696e-05
      ],
      "type": "VEC2"
    },
    {
      "bufferView": 0,
      "byteOffset": 355752,
      "componentType": 5125,
      "count": 60,
      "type": "SCALAR"
    }
  ],
  "asset": {
    "extras": {
      "author": "bhagathgoud (https://sketchfab.com/bhagathgoud)",
      "license": "CC-BY-4.0 (http://creativecommons.org/licenses/by/4.0/)",
      "source": "https://sketchfab.com/3d-models/tea-glass-chai-glass-indian-style-c160fc11558142d7a456d8d1021c0a0e",
      "title": "Tea glass / Chai glass Indian style"
    },
    "generator": "Sketchfab-14.20.0",
    "version": "2.0"
  },
  "bufferViews": [
    {
      "buffer": 0,
      "byteLength": 355992,
      "name": "floatBufferViews",
      "target": 34963
    },
    {
      "buffer": 0,
      "byteLength": 292472,
      "byteOffset": 355992,
      "byteStride": 8,
      "name": "floatBufferViews",
      "target": 34962
    },
    {
      "buffer": 0,
      "byteLength": 474096,
      "byteOffset": 648464,
      "byteStride": 12,
      "name": "floatBufferViews",
      "target": 34962
    },
    {
      "buffer": 0,
      "byteLength": 13600,
      "byteOffset": 1122560,
      "byteStride": 16,
      "name": "floatBufferViews",
      "target": 34962
    }
  ],
  "buffers": [
    {
      "byteLength": 1136160,
      "uri": "scene.bin"
    }
  ],
  "extensionsRequired": [
    "KHR_materials_pbrSpecularGlossiness"
  ],
  "extensionsUsed": [
    "KHR_materials_pbrSpecularGlossiness",
    "KHR_texture_transform"
  ],
  "images": [
    {
      "uri": "textures/Glass_specularGlossiness.png"
    },
    {
      "uri": "textures/Condensation_normal.png"
    }
  ],
  "materials": [
    {
      "alphaMode": "BLEND",
      "doubleSided": true,
      "extensions": {
        "KHR_materials_pbrSpecularGlossiness": {
          "diffuseFactor": [
            0.8,
            0.8,
            0.8,
            0.22059628258212793
          ],
          "glossinessFactor": 0.8888468343578425,
          "specularFactor": [
            0.0,
            0.0,
            0.0
          ]
        }
      },
      "name": "Material"
    },
    {
      "alphaMode": "BLEND",
      "doubleSided": true,
      "extensions": {
        "KHR_materials_pbrSpecularGlossiness": {
          "diffuseFactor": [
            0.0,
            0.0,
            0.0,
            0.21451610941879626
          ],
          "glossinessFactor": 1.0,
          "specularFactor": [
            0.5531445429167022,
            0.5531445429167022,
            0.5531445429167022
          ],
          "specularGlossinessTexture": {
            "index": 0
          }
        }
      },
      "name": "Glass"
    },
    {
      "alphaMode": "BLEND",
      "doubleSided": true,
      "extensions": {
        "KHR_materials_pbrSpecularGlossiness": {
          "diffuseFactor": [
            1.0,
            1.0,
            1.0,
            0.0
          ],
          "glossinessFactor": 1.0,
          "specularFactor": [
            0.3482799190120935,
            0.3482799190120935,
            0.3482799190120935
          ]
        }
      },
      "name": "Condensation",
      "normalTexture": {
        "extensions": {
          "KHR_texture_transform": {
            "scale": [
              6.5,
              6.5
            ]
          }
        },
        "index": 1
      }
    },
    {
      "doubleSided": true,
      "extensions": {
        "KHR_materials_pbrSpecularGlossiness": {
          "diffuseFactor": [
            0.723043,
            0.320853,
            0.100385,
            1.0
          ],
          "glossinessFactor": 1.0,
          "specularFactor": [
            0.0,
            0.0,
            0.0
          ]
        }
      },
      "name": "Liquid"
    },
    {
      "doubleSided": true,
      "extensions": {
        "KHR_materials_pbrSpecularGlossiness": {
          "diffuseFactor": [
            0.01676195584596067,
            0.008847188901652682,
            0.0023112089065203826,
            1.0
          ],
          "glossinessFactor": 1.0,
          "specularFactor": [
            0.11428606258609549,
            0.11428606258609549,
            0.11428606258609549
          ],
          "specularGlossinessTexture": {
            "index": 0
          }
        }
      },
      "name": "Background"
    }
  ],
  "meshes": [
    {
      "name": "Object_0",
      "primitives": [
        {
          "attributes": {
            "NORMAL": 1,
            "POSITION": 0,
            "TEXCOORD_0": 2
          },
          "indices": 3,
          "material": 0,
          "mode": 4
        }
      ]
    },
    {
      "name": "Object_1",
      "primitives": [
        {
          "attributes": {
            "NORMAL": 5,
            "POSITION": 4,
            "TEXCOORD_0": 6,
            "TEXCOORD_1": 7
          },
          "indices": 8,
          "material": 1,
          "mode": 4
        }
      ]
    },
    {
      "name": "Object_2",
      "primitives": [
        {
          "attributes": {
            "NORMAL": 10,
            "POSITION": 9,
            "TANGENT": 11,
            "TEXCOORD_0": 12
          },
          "indices": 13,
          "material": 2,
          "mode": 4
        }
      ]
    },
    {
      "name": "Object_3",
      "primitives": [
        {
          "attributes": {
            "NORMAL": 15,
            "POSITION": 14,
            "TEXCOORD_0": 16
          },
          "indices": 17,
          "material": 3,
          "mode": 4
        }
      ]
    },
    {
      "name": "Object_4",
      "primitives": [
        {
          "attributes": {
            "NORMAL": 19,
            "POSITION": 18,
            "TEXCOORD_0": 20,
            "TEXCOORD_1": 21
          },
          "indices": 22,
          "material": 4,
          "mode": 4
        }
      ]
    }
  ],
  "nodes": [
    {
      "children": [
        1
      ],
      "matrix": [
        0.3650169372558594,
        0.0,
        0.0,
        0.0,
        0.0,
        8.105004162392224e-17,
        -0.3650169372558594,
        0.0,
        0.0,
        0.3650169372558594,
        8.105004162392224e-17,
        0.0,
        0.0,
        0.0,
        0.0,
        1.0
      ],
      "name": "Sketchfab_model"
    },
    {
      "children": [
        2
      ],
      "name": "root"
    },
    {
      "children": [
        3,
        5,
        8,
        10
      ],
      "matrix": [
        1.0,
        0.0,
        0.0,
        0.0,
        0.0,
        2.220446049250313e-16,
        1.0,
        0.0,
        0.0,
        -1.0,
        2.220446049250313e-16,
        0.0,
        0.0,
        0.0,
        0.0,
        1.0
      ],
      "name": "GLTF_SceneRootNode"
    },
    {
      "children": [
        4
      ],
      "matrix": [
        1.0,
        0.0,
        0.0,
        0.0,
        0.0,
        1.0,
        0.0,
        0.0,
        0.0,
        0.0,
        1.0,
        0.0,
        0.0,
        0.051763057708740234,
        0.0,
        1.0
      ],
      "name": "old tea_0"
    },
    {
      "mesh": 0,
      "name": "Object_4"
    },
    {
      "children": [
        6,
        7
      ],
      "matrix": [
        1.0,
        0.0,
        0.0,
        0.0,
        0.0,
        1.0,
        0.0,
        0.0,
        0.0,
        0.0,
        1.0,
        0.0,
        0.0,
        0.09999997168779373,
        0.0,
        1.0
      ],
      "name": "Cylinder.001_2"
    },
    {
      "mesh": 1,
      "name": "Object_6"
    },
    {
      "mesh": 2,
      "name": "Object_7"
    },
    {
      "children": [
        9
      ],
      "matrix": [
        1.0530787706375122,
        0.0,
        0.0,
        0.0,
        0.0,
        1.0530787706375122,
        0.0,
        0.0,
        0.0,
        0.0,
        1.0530787706375122,
        0.0,
        0.0009337016381323338,
        0.09298232197761536,
        0.0,
        1.0
      ],
      "name": "Liquid_3"
    },
    {
      "mesh": 3,
      "name": "Object_9"
    },
    {
      "children": [
        11
      ],
      "matrix": [
        3.282233476638794,
        0.0,
        0.0,
        0.0,
        0.0,
        1.0,
        0.0,
        0.0,
        0.0,
        0.0,
        1.0,
        0.0,
        0.0,
        0.0,
        -0.8023368120193481,
        1.0
      ],
      "name": "Plane_5"
    },
    {
      "mesh": 4,
      "name": "Object_11"
    }
  ],
  "samplers": [
    {
      "magFilter": 9729,
      "minFilter": 9987,
      "wrapS": 10497,
      "wrapT": 10497
    }
  ],
  "scene": 0,
  "scenes": [
    {
      "name": "Sketchfab_Scene",
      "nodes": [
        0
      ]
    }
  ],
  "textures": [
    {
      "sampler": 0,
      "source": 0
    },
    {
      "sampler": 0,
      "source": 1
    }
  ]
}
